<?xml version="1.0" standalone="no"?>
<!DOCTYPE svg PUBLIC "-//W3C//DTD SVG 20010904//EN"
 "http://www.w3.org/TR/2001/REC-SVG-20010904/DTD/svg10.dtd">
<svg version="1.0" xmlns="http://www.w3.org/2000/svg"
 width="960.000000pt" height="1792.000000pt" viewBox="0 0 960.000000 1792.000000"
 preserveAspectRatio="xMidYMid meet">

<g transform="translate(0.000000,1792.000000) scale(0.100000,-0.100000)"
fill="#000000" stroke="none">
<path d="M0 17165 c0 -744 0 -756 19 -745 11 5 23 19 26 30 3 11 11 20 16 20
5 0 8 3 6 8 -1 4 1 8 6 10 17 5 27 1 27 -14 0 -8 -4 -12 -10 -9 -6 3 -7 -1 -4
-9 3 -9 -1 -39 -10 -68 -9 -29 -17 -65 -19 -79 -1 -15 -8 -33 -14 -40 -37 -46
-43 -89 -43 -315 0 -189 2 -224 14 -224 8 0 21 12 28 27 12 25 23 33 58 48 32
13 61 33 60 41 0 5 9 10 20 12 12 2 24 10 27 18 3 8 15 14 28 14 13 0 30 10
39 25 9 14 21 25 27 25 6 0 17 6 24 13 43 38 46 39 60 27 12 -10 22 -10 45 0
16 7 37 10 45 6 9 -3 13 -2 10 4 -4 6 7 8 27 4 31 -5 32 -5 14 10 -11 9 -24
16 -29 16 -5 0 -26 14 -47 30 -21 17 -42 30 -47 30 -6 0 -37 17 -70 38 -73 46
-102 63 -175 101 -31 17 -60 36 -64 42 -4 6 -3 10 2 8 37 -15 157 -73 254
-122 133 -68 230 -106 210 -82 -11 14 -10 14 14 5 34 -13 39 -13 31 0 -3 6 0
10 9 10 8 0 16 -6 19 -12 4 -10 7 -10 18 0 11 10 11 12 -1 12 -11 0 -10 3 2
13 9 6 66 109 126 228 60 118 120 233 134 255 14 21 51 82 82 134 70 117 81
130 131 154 32 15 59 18 135 16 128 -3 133 -4 150 -15 35 -23 67 -37 92 -40
22 -3 76 -33 98 -55 3 -3 10 -5 15 -6 28 -1 65 -18 65 -28 0 -7 19 -21 43 -32
23 -10 46 -29 52 -41 5 -13 15 -23 22 -23 13 0 13 4 20 -145 6 -148 -11 -286
-68 -550 -12 -55 -34 -129 -49 -160 -4 -11 -18 -50 -30 -86 -36 -115 -41 -156
-18 -170 10 -7 10 -9 -2 -9 -25 0 -17 -66 11 -91 l24 -20 -27 5 c-14 3 -33 8
-41 12 -11 4 -14 -6 -15 -52 0 -44 -5 -61 -18 -71 -10 -7 -12 -13 -6 -13 7 0
12 -8 13 -17 0 -11 3 -13 6 -5 8 20 27 14 52 -17 13 -16 30 -27 38 -24 7 3 13
-2 13 -11 0 -9 -5 -16 -11 -16 -5 0 -7 -4 -4 -10 3 -5 16 -10 29 -10 24 0 72
-47 68 -67 -3 -14 32 -36 42 -26 3 3 6 2 6 -4 0 -6 8 -13 18 -15 11 -3 22 -23
31 -56 7 -29 17 -52 21 -52 17 0 24 -71 9 -81 -11 -7 -11 -11 -1 -17 19 -12
15 -205 -4 -198 -10 4 -11 0 -2 -19 6 -14 17 -25 24 -25 13 0 37 -17 69 -47 8
-7 17 -13 21 -13 4 0 22 -11 40 -25 42 -32 60 -25 86 34 11 25 40 87 63 136
23 50 46 101 50 115 4 14 19 42 31 62 13 21 24 41 24 44 0 22 53 114 65 114 8
0 15 -4 15 -8 0 -5 18 -18 40 -31 22 -12 43 -27 47 -34 5 -7 25 -21 46 -31 20
-11 37 -23 37 -28 0 -5 5 -6 10 -3 6 3 15 3 21 -1 8 -4 7 -9 -2 -15 -9 -5 -4
-8 16 -6 24 2 31 -2 33 -21 3 -17 8 -21 26 -16 16 4 30 -2 47 -20 13 -14 32
-26 42 -26 9 0 17 -6 17 -13 0 -14 46 -67 59 -67 4 0 14 -18 21 -40 7 -22 17
-40 22 -40 4 0 8 -18 8 -40 0 -22 -4 -40 -10 -40 -5 0 -10 -18 -10 -40 0 -22
5 -40 10 -40 6 0 10 -18 10 -40 0 -22 5 -40 10 -40 6 0 10 -18 10 -40 0 -22
-3 -40 -8 -40 -16 0 -34 -42 -23 -53 8 -8 11 -8 11 1 0 7 5 12 10 12 6 0 10
-9 10 -20 0 -11 -4 -20 -10 -20 -5 0 -10 -7 -10 -15 0 -8 -6 -24 -12 -35 -11
-17 -10 -22 1 -29 11 -7 10 -11 -5 -20 -18 -10 -18 -12 -1 -21 21 -14 22 -40
1 -40 -18 0 -11 -35 14 -63 15 -16 14 -21 -3 -54 -15 -27 -17 -37 -7 -41 14
-4 17 -82 3 -82 -5 0 -11 -10 -13 -22 -2 -18 -9 -23 -31 -21 -23 1 -27 -2 -27
-23 0 -24 -3 -25 -37 -21 -21 2 -30 2 -20 0 24 -6 22 -33 -3 -33 -11 0 -20 -4
-20 -10 0 -5 9 -10 20 -10 11 0 20 5 20 10 0 6 9 10 20 10 11 0 20 -7 20 -15
0 -8 -8 -15 -18 -15 -25 0 -62 -28 -62 -47 0 -9 6 -24 14 -32 8 -9 17 -27 21
-41 5 -22 3 -25 -19 -25 -20 0 -25 4 -20 18 5 16 3 17 -15 5 -12 -7 -21 -16
-21 -21 0 -4 -5 -5 -11 -2 -6 5 -4 12 8 20 10 7 14 17 10 21 -4 5 -11 4 -15
-2 -9 -14 -68 -11 -65 3 2 7 -5 11 -15 10 -9 0 -102 42 -207 94 -104 53 -199
99 -209 102 -16 6 -17 5 -6 -8 13 -15 117 -76 295 -171 287 -153 305 -164 305
-183 0 -11 -3 -11 -15 -1 -8 6 -19 9 -25 5 -5 -3 -10 -1 -10 5 0 6 -4 8 -10 5
-5 -3 -27 -1 -48 5 -22 5 -53 7 -71 4 -30 -6 -31 -9 -31 -56 0 -41 -5 -53 -27
-73 -16 -13 -34 -25 -40 -25 -25 0 -13 -20 12 -20 l25 0 -18 -37 c-9 -21 -20
-39 -24 -41 -5 -2 -8 -12 -8 -23 0 -10 -4 -19 -10 -19 -5 0 -10 -8 -10 -17 0
-10 -9 -33 -20 -51 -13 -21 -20 -50 -20 -82 l0 -50 -41 0 c-36 0 -40 -2 -34
-20 11 -34 -4 -62 -28 -56 -12 3 -16 3 -9 0 17 -8 15 -34 -3 -34 -9 0 -15 -9
-15 -23 0 -13 -7 -32 -15 -43 -13 -17 -14 -17 -15 -1 0 9 -5 17 -11 17 -8 0
-9 -13 -5 -39 5 -34 4 -39 -12 -35 -15 4 -17 -1 -14 -40 3 -35 1 -46 -10 -46
-8 0 -20 -12 -26 -26 -7 -14 -17 -22 -22 -19 -6 3 -13 -2 -17 -11 -4 -10 -2
-19 5 -22 7 -2 12 -7 12 -12 0 -10 -57 2 -87 18 -12 7 -33 12 -47 12 -15 0
-34 4 -44 9 -9 6 -34 13 -54 16 -21 3 -77 25 -125 49 -95 47 -157 70 -174 64
-11 -4 3 -11 186 -108 55 -28 118 -62 140 -75 22 -12 87 -46 145 -75 105 -53
175 -98 167 -107 -3 -2 -13 0 -24 5 -10 6 -33 16 -50 22 -18 7 -30 16 -27 21
3 5 -2 6 -10 3 -9 -3 -16 -2 -16 2 0 5 -29 9 -65 9 -36 0 -65 -3 -65 -7 0 -5
4 -8 10 -8 5 0 7 -6 4 -14 -3 -8 0 -25 7 -37 10 -20 9 -25 -10 -37 -11 -8 -21
-22 -21 -32 0 -13 -12 -20 -42 -25 -31 -6 -37 -9 -20 -12 27 -5 29 -33 3 -40
-15 -4 -19 -18 -24 -86 -4 -45 -10 -109 -13 -141 -6 -50 -5 -58 8 -54 11 5 14
0 10 -17 -2 -13 -13 -25 -23 -28 -14 -4 -19 -14 -19 -36 0 -24 -4 -31 -20 -31
-11 0 -20 -4 -20 -10 0 -5 9 -10 20 -10 24 0 24 -5 5 -60 -8 -23 -15 -44 -15
-46 0 -2 7 -4 15 -4 11 0 15 -11 15 -40 0 -33 -3 -40 -20 -40 -18 0 -20 -7
-20 -64 0 -58 -3 -67 -27 -87 l-28 -22 28 7 c15 3 27 2 27 -3 0 -17 -61 -21
-83 -6 -34 24 -41 17 -10 -10 l28 -25 -30 15 c-16 8 -41 15 -55 16 -23 0 -23
1 -5 9 18 8 18 9 -5 10 -14 1 -34 4 -45 6 -11 3 -29 6 -41 8 -11 1 -38 12 -60
24 -47 25 -225 102 -238 102 -19 0 43 -38 129 -79 374 -180 428 -210 414 -228
-7 -7 -24 -13 -40 -13 -25 0 -29 -5 -35 -37 -4 -21 -12 -45 -19 -53 -6 -8 -18
-41 -25 -72 -8 -37 -18 -58 -27 -58 -10 0 -12 -6 -8 -20 5 -15 0 -26 -17 -40
-13 -11 -17 -19 -10 -20 10 0 10 -6 -2 -27 -9 -16 -20 -41 -26 -56 -6 -17 -14
-25 -21 -21 -9 5 -10 -4 -5 -31 5 -24 4 -35 -3 -31 -6 4 -15 -11 -21 -34 -6
-22 -14 -40 -19 -40 -4 0 -14 -19 -22 -42 -12 -38 -14 -39 -19 -17 -5 20 -10
14 -32 -41 -25 -63 -27 -65 -58 -62 -28 3 -32 1 -25 -15 19 -44 16 -58 -12
-71 -18 -8 -29 -9 -31 -2 -2 5 -12 10 -23 10 -14 0 -19 -7 -19 -30 0 -23 4
-30 20 -30 11 0 20 -4 20 -10 0 -5 -9 -10 -20 -10 -11 0 -20 5 -20 10 0 6 -9
10 -19 10 -11 0 -21 6 -24 13 -3 7 -9 2 -15 -13 -6 -17 -6 -28 2 -33 7 -6 4
-7 -7 -3 -10 3 -21 6 -23 6 -2 0 -4 7 -4 15 0 8 -3 15 -7 16 -55 4 -207 36
-188 39 6 1 -29 12 -78 26 -48 13 -111 35 -140 48 -28 13 -68 27 -87 31 -34 6
-34 6 -10 -8 14 -7 34 -19 45 -25 23 -14 173 -83 295 -137 329 -145 357 -160
338 -182 -8 -10 -14 -11 -16 -4 -2 6 -17 11 -33 11 -15 0 -44 9 -64 20 -38 22
-165 29 -165 10 0 -5 -6 -10 -13 -10 -8 0 -19 -11 -25 -25 -6 -14 -18 -25 -27
-25 -8 0 -15 -6 -15 -14 0 -8 -10 -17 -22 -19 l-23 -4 23 -2 c12 0 22 -8 22
-16 0 -9 -9 -15 -22 -16 -13 0 -32 -4 -43 -8 -16 -7 -12 -10 25 -19 l45 -10
-42 -1 c-24 -1 -43 -5 -43 -10 0 -12 -59 -71 -71 -71 -5 0 -9 -13 -9 -28 0
-20 -7 -32 -23 -40 l-22 -11 23 0 c51 -2 -2 -35 -58 -36 -17 0 -27 -45 -11
-45 6 0 11 7 11 15 0 19 14 19 30 0 10 -13 9 -15 -9 -15 -11 0 -21 -4 -21 -10
0 -5 -14 -10 -31 -10 -30 0 -31 -2 -25 -31 l6 -32 -44 5 c-39 5 -43 3 -38 -14
5 -20 -40 -67 -64 -68 -6 0 -18 -7 -25 -16 -11 -13 -26 -15 -76 -11 -59 6 -63
5 -63 -14 0 -15 -6 -20 -23 -18 -30 4 -54 -10 -36 -22 7 -4 10 -11 6 -15 -3
-4 -13 -1 -22 6 -11 9 -18 10 -29 1 -19 -16 -103 -26 -118 -14 -23 18 -186 66
-202 60 -32 -12 -16 -38 37 -61 28 -13 82 -38 120 -55 37 -17 70 -31 73 -31 2
0 37 -15 77 -33 40 -19 117 -53 172 -77 55 -23 127 -55 160 -71 34 -15 90 -39
125 -52 36 -14 85 -37 110 -51 l45 -26 -45 6 c-25 4 -54 12 -65 18 -11 7 -54
25 -95 40 -107 40 -154 60 -160 66 -3 3 -16 7 -30 8 -14 2 -29 8 -35 13 -5 5
-16 9 -25 9 -21 0 -70 23 -70 33 0 5 -5 5 -10 2 -6 -3 -29 3 -53 14 -64 31
-121 55 -132 56 -5 0 -16 4 -23 8 -7 5 -24 10 -38 13 -14 3 -45 12 -67 20 -23
9 -52 18 -64 21 l-23 5 0 -4756 0 -4756 4800 0 4800 0 0 2199 0 2200 -50 -1
c-27 -1 -50 -4 -50 -8 0 -4 -32 -8 -72 -8 -46 -1 -77 -7 -87 -16 -10 -9 -49
-17 -110 -20 -59 -4 -98 -11 -103 -19 -5 -9 -8 -9 -8 0 0 6 -8 14 -17 16 -11
3 -7 5 10 6 15 0 40 7 55 14 15 8 88 24 162 36 74 12 149 27 166 32 17 5 45 9
63 9 17 0 34 6 36 13 3 6 4 182 3 390 l-3 379 -30 -41 c-16 -22 -33 -41 -36
-41 -4 0 -9 14 -12 30 -4 17 -11 30 -17 30 -13 0 -50 32 -50 43 0 15 -44 46
-65 47 -12 0 -26 5 -31 10 -6 6 -30 12 -52 13 -33 1 -42 5 -42 19 0 10 -7 18
-16 18 -8 0 -13 4 -9 9 8 13 -11 23 -54 28 -20 2 -49 6 -66 8 -21 2 -45 20
-77 56 -27 29 -48 58 -48 64 0 6 -8 27 -19 47 -22 45 -35 135 -19 140 8 3 6
14 -5 36 -8 18 -12 32 -7 32 5 0 11 15 15 33 14 64 118 392 142 445 8 19 13
42 10 53 -3 10 -1 19 4 19 5 0 9 5 9 10 0 6 -11 5 -27 -3 -16 -8 -45 -17 -66
-21 -38 -7 -38 -7 -22 -32 20 -31 11 -36 -87 -37 -104 -2 -129 3 -122 25 3 11
0 18 -8 18 -8 0 -29 13 -48 30 -19 16 -38 29 -42 30 -3 0 -30 16 -59 35 -30
19 -57 35 -62 35 -5 0 -29 14 -54 30 -51 35 -69 37 -78 11 -10 -34 -117 -205
-142 -229 -28 -26 -43 -28 -43 -7 0 8 -4 15 -10 15 -5 0 -7 6 -4 14 3 7 -2 16
-10 19 -9 4 -16 13 -16 22 0 20 -50 70 -70 70 -9 0 -20 17 -28 40 -7 22 -20
47 -28 57 -9 9 -13 22 -8 29 4 8 3 10 -4 5 -7 -4 -19 7 -29 31 -10 21 -23 41
-29 45 -15 10 -64 104 -64 123 0 8 5 15 10 15 6 0 10 5 10 10 0 6 -6 10 -13
10 -17 0 -38 36 -31 55 4 10 -5 26 -25 44 -31 27 -40 56 -21 63 11 4 21 188 9
188 -4 0 -10 -8 -13 -17 -3 -10 -3 3 0 28 3 26 13 63 23 83 13 25 17 49 14 76
-5 38 -4 40 20 40 14 0 56 -14 94 -31 87 -40 310 -129 320 -129 8 0 -55 41
-97 62 -14 7 -50 27 -80 44 -30 17 -65 35 -78 39 -27 8 -131 75 -117 75 6 0
11 19 12 42 1 23 6 44 12 46 6 2 11 14 11 27 0 12 6 25 14 28 7 3 16 18 20 33
4 15 26 68 50 118 24 50 47 106 50 123 4 18 11 33 16 33 4 0 13 12 19 27 5 16
19 44 29 63 35 64 112 226 112 236 0 6 5 15 12 22 12 12 19 32 21 65 1 15 8
18 37 14 19 -3 45 -8 58 -12 14 -5 22 -3 22 4 0 6 -11 13 -25 17 -49 12 -42
80 16 156 16 20 29 46 29 57 0 10 13 46 29 78 16 32 51 105 76 163 26 58 62
138 81 178 19 40 34 79 34 87 0 7 3 15 7 17 12 5 73 131 73 149 0 8 6 23 13
32 14 20 42 14 135 -30 29 -14 55 -23 58 -20 3 2 -12 12 -33 22 -21 10 -59 32
-85 48 l-47 31 19 35 c10 20 18 39 19 43 1 5 15 34 31 67 17 32 30 62 30 66 0
4 18 44 39 89 21 44 50 106 64 136 14 30 68 143 121 251 53 108 96 201 96 207
0 7 5 13 10 13 6 1 16 2 23 3 7 1 11 12 9 29 -2 19 17 70 58 155 35 70 66 128
71 130 5 2 9 13 9 25 0 12 9 33 20 47 11 14 20 31 20 38 0 6 3 12 8 12 7 0 37
60 47 98 4 12 11 22 16 22 5 0 9 9 9 20 0 11 4 20 8 20 31 0 32 82 32 3364 0
3283 0 3286 -20 3276 -11 -5 -29 -15 -40 -20 -17 -8 -20 -7 -20 9 0 26 -10 51
-20 51 -12 0 -33 -68 -26 -85 3 -9 -1 -15 -10 -15 -20 0 -30 -30 -13 -41 11
-8 10 -13 -10 -29 -14 -12 -18 -20 -10 -20 8 -1 3 -6 -11 -13 -30 -14 -39 -47
-13 -47 15 0 15 -2 -4 -15 -16 -11 -20 -23 -18 -50 3 -25 -1 -35 -11 -35 -18
0 -19 -56 -1 -64 6 -3 0 -3 -15 0 -23 5 -28 3 -28 -14 0 -12 -10 -28 -22 -36
-20 -14 -23 -14 -31 -1 -4 8 -12 15 -16 15 -11 0 -1 -104 10 -108 18 -7 8 -45
-17 -64 -14 -11 -23 -26 -21 -32 3 -7 -1 -20 -8 -29 -7 -10 -11 -27 -8 -37 3
-11 0 -20 -6 -20 -6 0 -11 -7 -11 -15 0 -8 -7 -15 -16 -15 -11 0 -14 -5 -10
-16 3 -8 1 -24 -5 -35 -8 -16 -4 -25 28 -56 l38 -36 -30 7 c-20 4 -25 3 -16
-3 8 -5 11 -16 8 -25 -7 -18 -23 -21 -32 -6 -3 6 -13 10 -22 10 -9 0 -27 10
-39 21 l-23 22 -30 -31 c-17 -17 -31 -38 -31 -46 0 -20 -16 -21 -24 -1 -3 8
-13 15 -23 15 -12 0 -14 -3 -6 -11 11 -11 5 -59 -8 -59 -16 0 -21 22 -8 31 9
6 4 7 -16 3 -16 -3 -36 -13 -42 -22 -12 -14 -13 -14 -13 1 0 9 5 17 11 17 13
0 8 31 -6 32 -5 1 -15 8 -21 16 -7 9 -18 13 -28 9 -13 -5 -17 -2 -14 11 4 22
-21 52 -39 45 -9 -4 -16 3 -20 16 -3 11 -9 21 -13 21 -17 0 -40 -13 -40 -22 0
-5 5 -6 12 -2 8 5 9 2 5 -10 -4 -10 -7 -20 -7 -22 0 -12 -20 -1 -24 14 -11 33
-73 93 -90 86 -9 -3 -13 -10 -10 -15 3 -5 0 -9 -5 -9 -6 0 -12 8 -13 18 -2 32
-4 37 -16 57 -12 19 -13 18 -9 -8 6 -35 -10 -46 -19 -12 -8 31 -21 33 -26 3
-2 -12 -9 -24 -17 -26 -11 -4 -13 2 -8 27 4 20 3 30 -5 28 -6 -1 -13 4 -15 11
-3 6 0 12 6 12 6 0 11 5 11 10 0 14 -37 13 -42 -1 -2 -7 -15 -9 -35 -5 -33 8
-51 35 -49 79 1 15 -2 27 -6 27 -4 0 -8 6 -8 13 0 25 -24 64 -45 73 -13 6 -19
16 -17 32 4 24 -22 32 -31 10 -3 -8 -6 -6 -6 5 -1 10 -9 17 -21 17 -16 0 -20
7 -20 34 0 22 6 36 16 40 26 10 -3 38 -30 30 -12 -4 -18 -3 -15 0 14 15 -171
176 -202 176 -5 0 -12 7 -15 15 -3 8 -29 27 -57 43 -29 16 -67 37 -86 48 -19
10 -47 30 -63 44 -36 31 -88 60 -108 60 -9 0 -22 9 -30 20 -8 11 -20 20 -26
20 -6 0 -17 7 -25 16 -7 8 -33 27 -58 40 -70 37 -112 63 -128 79 -8 8 -19 15
-24 15 -5 0 -9 7 -9 15 0 9 6 12 15 9 23 -9 18 2 -12 31 -15 14 -23 25 -16 25
6 0 18 -7 27 -15 8 -8 27 -15 43 -15 30 0 70 -22 117 -64 16 -14 36 -26 43
-26 8 0 39 -16 68 -35 41 -27 59 -34 79 -29 22 5 26 3 26 -15 0 -14 6 -21 19
-21 10 0 27 -11 37 -25 19 -25 52 -30 66 -10 4 6 8 0 8 -12 0 -13 4 -23 8 -23
17 0 47 43 44 62 -3 18 -3 18 18 1 17 -15 18 -19 5 -21 -17 -4 -20 -34 -5 -63
14 -25 26 -24 34 4 l6 22 15 -25 c8 -14 14 -20 15 -13 0 6 3 18 6 27 4 12 0
16 -16 16 -19 0 -21 4 -15 30 8 37 -8 60 -41 60 -13 0 -24 5 -24 10 0 6 -9 10
-19 10 -11 0 -22 4 -25 9 -3 5 -23 12 -43 17 l-38 8 35 5 c39 7 50 33 30 71
-9 17 -18 20 -36 16 -30 -8 -32 9 -1 19 17 6 19 8 6 12 -11 3 -15 11 -12 24 3
12 11 18 19 15 9 -4 14 2 14 15 0 12 -4 17 -11 13 -6 -3 -15 -1 -19 6 -5 8
-10 3 -14 -14 -7 -27 -20 -34 -31 -15 -4 5 -7 36 -8 69 -1 48 -4 57 -16 52
-14 -5 -14 -3 -3 11 8 9 21 13 30 10 13 -5 11 0 -6 19 -12 13 -19 27 -16 31 4
4 -1737 7 -3869 7 l-3877 0 0 -755z m4717 719 l28 -25 -25 7 c-29 7 -50 23
-50 35 0 16 18 9 47 -17z m2989 -11 c-10 -10 -19 5 -10 18 6 11 8 11 12 0 2
-7 1 -15 -2 -18z m-406 -163 c0 -5 -4 -10 -10 -10 -5 0 -10 5 -10 10 0 6 5 10
10 10 6 0 10 -4 10 -10z m-20 -47 c0 -10 -4 -14 -8 -8 -4 6 -11 13 -16 18 -5
4 -2 7 7 7 10 0 17 -8 17 -17z m360 -73 c0 -5 -4 -10 -10 -10 -5 0 -10 5 -10
10 0 6 5 10 10 10 6 0 10 -4 10 -10z m153 -7 c-7 -2 -19 -2 -25 0 -7 3 -2 5
12 5 14 0 19 -2 13 -5z m107 -83 c0 -5 -9 -10 -20 -10 -11 0 -20 5 -20 10 0 6
9 10 20 10 11 0 20 -4 20 -10z m1410 -661 c0 -11 -4 -17 -10 -14 -5 3 -10 13
-10 21 0 8 5 14 10 14 6 0 10 -9 10 -21z m-5110 -61 c0 -12 -10 -9 -26 6 -20
21 -17 28 6 14 11 -7 20 -16 20 -20z m4237 -134 c-3 -3 -12 -4 -19 -1 -8 3 -5
6 6 6 11 1 17 -2 13 -5z m203 -94 c0 -5 -4 -10 -10 -10 -5 0 -10 5 -10 10 0 6
5 10 10 10 6 0 10 -4 10 -10z m50 -90 c0 -5 -4 -10 -10 -10 -5 0 -10 5 -10 10
0 6 5 10 10 10 6 0 10 -4 10 -10z m-6926 -1075 c12 -8 46 -27 75 -43 241 -128
338 -187 272 -167 -14 4 -39 16 -55 26 -17 11 -71 39 -121 64 -152 75 -205
108 -205 126 0 13 7 11 34 -6z m776 -45 c0 -5 -5 -10 -11 -10 -5 0 -7 5 -4 10
3 6 8 10 11 10 2 0 4 -4 4 -10z m-7 -49 c3 -11 -1 -31 -9 -45 -11 -23 -10 -33
4 -74 9 -26 19 -49 22 -52 3 -3 10 -14 16 -25 7 -11 20 -19 30 -18 18 1 33
-12 34 -29 0 -5 -8 -8 -17 -9 -14 0 -13 -3 5 -11 12 -6 22 -15 22 -20 0 -11
38 -48 50 -48 6 0 10 -9 10 -19 0 -11 9 -23 21 -26 12 -4 30 -16 40 -26 10
-10 26 -19 35 -19 9 0 12 -5 8 -11 -5 -8 1 -10 20 -7 14 3 29 1 32 -3 3 -5 -2
-9 -11 -9 -9 0 -13 -4 -10 -10 8 -13 -44 7 -65 24 -8 7 -35 20 -60 30 -90 34
-315 153 -318 168 -4 20 95 229 116 246 20 15 19 16 25 -7z m-286 -177 c36
-20 63 -38 60 -40 -6 -6 -57 17 -57 27 0 4 -10 9 -22 12 -13 4 -32 13 -43 21
-36 27 -3 17 62 -20z m-427 -5 c0 -5 -4 -9 -10 -9 -5 0 -10 7 -10 16 0 8 5 12
10 9 6 -3 10 -10 10 -16z m1120 -340 l25 -20 -32 16 c-18 8 -33 18 -33 20 0
10 16 4 40 -16z m-25 -119 c3 -5 1 -10 -4 -10 -6 0 -11 5 -11 10 0 6 2 10 4
10 3 0 8 -4 11 -10z m1418 -216 c150 -70 281 -166 348 -255 50 -68 52 -103 6
-118 -73 -25 -300 58 -427 155 -128 98 -217 235 -167 258 6 3 45 4 85 2 58 -4
90 -12 155 -42z m-1413 6 c0 -5 -7 -10 -15 -10 -8 0 -15 5 -15 10 0 6 7 10 15
10 8 0 15 -4 15 -10z m3831 -1380 c110 -21 316 -119 387 -184 103 -95 95 -156
-21 -156 -61 0 -74 3 -192 35 -116 32 -279 138 -325 211 -55 87 2 122 151 94z
m2394 -1290 c147 -48 202 -76 263 -134 49 -47 57 -90 20 -100 -65 -17 -218 3
-335 44 -138 48 -273 147 -273 201 0 54 140 49 325 -11z m-7225 30 c0 -5 -9
-10 -20 -10 -11 0 -20 5 -20 10 0 6 9 10 20 10 11 0 20 -4 20 -10z m-3 -62
c-3 -8 -6 -5 -6 6 -1 11 2 17 5 13 3 -3 4 -12 1 -19z m-462 -1227 c3 -5 1 -12
-5 -16 -5 -3 -10 1 -10 9 0 18 6 21 15 7z m1603 -163 c-4 -33 -33 -35 -33 -3
0 17 5 25 18 25 13 0 18 -6 15 -22z m-266 -45 c10 -9 18 -22 18 -30 0 -7 7
-16 15 -19 19 -8 19 -48 0 -64 -8 -6 -23 -9 -35 -5 -27 9 -27 -21 1 -44 l21
-17 -23 -43 c-15 -30 -24 -39 -29 -30 -14 27 -21 203 -9 237 13 37 16 38 41
15z m128 -262 c0 -18 -17 -20 -36 -6 -18 14 -18 14 9 15 15 0 27 -4 27 -9z
m150 -52 c0 -24 -4 -38 -10 -34 -5 3 -10 22 -10 41 0 19 5 34 10 34 6 0 10
-18 10 -41z m-2710 -439 c0 -13 -11 -13 -30 0 -12 8 -11 10 8 10 12 0 22 -4
22 -10z m4016 -160 c48 0 108 -12 124 -25 8 -7 25 -16 38 -19 12 -4 23 -15 24
-24 0 -9 2 -22 2 -28 1 -6 9 -22 19 -37 9 -14 17 -33 17 -42 0 -23 17 -18 24
8 3 12 9 18 13 12 12 -16 83 -28 83 -15 0 5 9 6 21 3 22 -6 39 -40 39 -79 0
-19 5 -24 28 -26 15 0 32 -2 37 -2 11 -1 33 -20 99 -83 24 -24 48 -43 53 -43
5 0 15 -11 21 -25 7 -14 20 -29 29 -32 20 -7 46 -40 50 -61 3 -25 13 -45 20
-39 11 11 33 -14 33 -37 0 -12 -7 -31 -15 -42 -23 -30 -20 -47 7 -33 18 9 20
9 15 -4 -3 -8 3 -23 14 -33 11 -10 17 -24 14 -32 -4 -10 3 -13 25 -10 17 1 34
-2 38 -8 4 -5 27 -22 52 -36 25 -15 69 -51 99 -81 47 -49 53 -59 47 -84 -4
-15 -13 -31 -19 -35 -9 -6 -9 -8 1 -8 6 0 12 -6 12 -14 0 -10 -11 -15 -32 -15
-18 0 -51 -3 -74 -6 -37 -6 -43 -4 -63 20 -11 15 -21 34 -21 41 0 9 -12 14
-33 14 -21 0 -41 8 -52 20 -10 11 -24 20 -32 20 -7 0 -13 6 -13 13 0 16 -67
50 -81 42 -5 -4 -9 1 -9 9 0 9 -11 18 -25 22 -16 4 -25 13 -25 26 0 18 2 19
16 7 13 -10 17 -10 25 2 5 8 9 17 9 20 0 3 11 4 25 1 19 -3 25 0 25 13 0 15
-6 17 -42 11 -24 -4 -51 -7 -60 -7 -10 0 -18 -8 -19 -17 0 -11 -3 -12 -6 -4
-8 21 -43 14 -43 -9 0 -17 -4 -20 -24 -15 -15 4 -28 0 -36 -9 -15 -18 -61 -20
-78 -3 -10 10 -17 10 -33 0 -15 -10 -24 -10 -34 -2 -9 8 -15 8 -20 0 -3 -5 0
-10 7 -10 20 0 -13 -20 -35 -20 -19 0 -38 36 -30 58 7 17 48 15 63 -3 17 -21
30 -19 30 5 0 12 -7 20 -16 20 -9 0 -38 21 -64 46 -36 34 -48 53 -47 72 2 20
-6 30 -36 47 -20 12 -35 24 -31 27 8 8 -14 48 -26 48 -5 0 -17 -11 -25 -24
-13 -19 -14 -28 -4 -50 10 -20 10 -29 1 -38 -7 -7 -12 -22 -12 -34 0 -19 -6
-23 -37 -26 -35 -3 -36 -4 -20 -20 11 -10 13 -19 7 -23 -5 -3 -10 -2 -10 3 0
5 -11 15 -25 22 -22 12 -27 11 -40 -6 -8 -10 -15 -26 -15 -34 0 -8 -9 -26 -19
-39 -14 -18 -23 -22 -37 -16 -11 4 -29 7 -42 6 -23 -3 -62 23 -62 41 0 5 7 16
15 25 18 18 16 44 -3 51 -9 3 -13 -3 -11 -14 1 -11 -1 -27 -4 -36 -4 -10 -9
-25 -12 -33 -2 -8 -11 -15 -20 -15 -12 0 -15 8 -12 35 2 19 10 41 16 49 10 12
8 16 -8 21 -40 12 -68 55 -36 55 8 0 15 5 15 10 0 6 -7 10 -16 10 -10 0 -14 6
-10 15 3 8 1 15 -4 15 -12 0 -70 57 -70 69 0 5 -11 18 -24 28 -30 24 -56 74
-56 108 0 20 -4 25 -17 21 -58 -17 -73 -17 -102 0 -17 10 -31 24 -31 32 0 7
-4 10 -10 7 -17 -11 -11 14 9 34 11 11 21 30 23 43 4 32 22 29 26 -4 3 -26 22
-41 22 -18 0 16 28 12 50 -7 13 -11 18 -24 14 -39 -6 -24 21 -42 30 -18 3 8
17 14 32 14 15 0 32 8 39 17 15 20 8 84 -9 95 -8 5 -7 8 1 8 25 0 -1 32 -38
47 -26 10 -39 21 -39 34 0 11 -7 19 -16 19 -8 0 -12 5 -9 11 4 6 14 8 22 5 8
-3 28 1 45 10 25 13 32 14 39 3 6 -11 16 -6 43 20 19 18 39 30 46 26 6 -4 19
-3 28 1 21 8 40 11 116 18 43 3 63 1 73 -10 17 -16 33 -18 33 -4 0 6 -4 10
-10 10 -5 0 -10 5 -10 11 0 8 4 8 14 0 7 -6 27 -11 42 -11z m334 -145 c0 -8
-4 -15 -10 -15 -5 0 -10 7 -10 15 0 8 5 15 10 15 6 0 10 -7 10 -15z m-720
-145 c0 -5 -16 -10 -35 -10 -19 0 -35 5 -35 10 0 6 16 10 35 10 19 0 35 -4 35
-10z m3100 -310 c0 -5 -4 -10 -9 -10 -6 0 -13 5 -16 10 -3 6 1 10 9 10 9 0 16
-4 16 -10z m-2570 -45 c0 -8 -9 -15 -20 -15 -22 0 -27 15 -7 23 21 9 27 7 27
-8z m2549 -12 c9 -17 11 -16 30 1 21 19 21 19 21 -2 0 -13 -6 -22 -14 -22 -20
0 -30 -18 -17 -33 6 -8 6 -18 0 -27 -8 -13 -11 -12 -23 3 -8 10 -12 27 -9 38
4 15 0 22 -16 26 -23 6 -28 19 -8 26 21 9 26 8 36 -10z m-2979 -76 c0 -10 -4
-15 -10 -12 -5 3 -10 18 -10 33 0 21 2 24 10 12 5 -8 10 -23 10 -33z m2950 13
c0 -5 -5 -10 -11 -10 -5 0 -7 5 -4 10 3 6 8 10 11 10 2 0 4 -4 4 -10z m-2883
-106 c-3 -3 -12 -4 -19 -1 -8 3 -5 6 6 6 11 1 17 -2 13 -5z m12 -66 c12 -17
10 -18 -34 -18 -33 0 -45 4 -42 13 2 6 13 12 24 12 12 0 25 3 29 8 4 4 8 6 8
5 1 -2 8 -11 15 -20z m91 -35 c0 -7 -4 -13 -10 -13 -5 0 -10 12 -10 28 0 21 2
24 10 12 5 -8 10 -21 10 -27z m3616 -1488 c-3 -8 -12 -15 -21 -15 -14 0 -14 3
2 24 18 24 30 18 19 -9z m-206 -692 c47 -20 108 -46 135 -59 28 -12 82 -34
120 -49 39 -14 93 -37 122 -50 28 -14 56 -25 62 -25 22 0 101 -45 101 -57 0
-20 -15 -16 -96 22 -40 19 -79 35 -86 35 -7 0 -37 14 -67 30 -30 17 -58 30
-63 30 -5 0 -39 14 -76 31 -37 17 -87 40 -112 51 -25 11 -61 28 -81 39 -20 10
-43 19 -50 19 -8 0 -23 8 -34 17 -19 15 -19 15 10 8 17 -3 68 -23 115 -42z
m-6267 -1847 c20 -16 23 -36 4 -36 -17 0 -37 20 -37 37 0 16 10 16 33 -1z
m1262 -16 c3 -5 -1 -10 -9 -10 -8 0 -18 5 -21 10 -3 6 1 10 9 10 8 0 18 -4 21
-10z m6408 -87 c-7 -2 -19 -2 -25 0 -7 3 -2 5 12 5 14 0 19 -2 13 -5z m-113
-13 c0 -5 -5 -10 -11 -10 -5 0 -7 5 -4 10 3 6 8 10 11 10 2 0 4 -4 4 -10z
m-515 -78 c-3 -3 -11 0 -18 7 -9 10 -8 11 6 5 10 -3 15 -9 12 -12z m-5022
-144 c29 -22 151 -370 145 -415 -4 -36 -24 -40 -33 -6 -3 15 -36 107 -72 203
-82 218 -85 230 -69 230 7 0 20 -6 29 -12z m3898 -292 c-15 -18 -54 -28 -48
-13 2 7 11 11 20 9 8 -1 18 2 22 8 3 5 9 10 12 10 3 0 0 -6 -6 -14z m-131 -60
c0 -3 -4 -8 -10 -11 -5 -3 -10 -1 -10 4 0 6 5 11 10 11 6 0 10 -2 10 -4z
m-150 -76 c0 -5 -2 -10 -4 -10 -3 0 -8 5 -11 10 -3 6 -1 10 4 10 6 0 11 -4 11
-10z m-44 -25 c-1 -28 -5 -30 -41 -13 -33 15 -32 26 3 31 15 2 30 5 33 6 4 0
6 -10 5 -24z m-86 -14 c0 -6 -5 -13 -10 -16 -6 -4 -8 -11 -5 -16 4 -5 -3 -13
-15 -17 -22 -8 -22 -8 5 -26 21 -14 40 -17 76 -14 27 3 49 1 49 -3 0 -5 -6 -9
-12 -9 -9 0 -9 -3 1 -9 9 -6 22 -6 33 0 13 7 18 6 16 -3 -2 -8 5 -12 17 -11
26 3 85 -16 85 -27 0 -5 -8 -11 -17 -13 -10 -3 -4 -5 13 -6 16 0 34 3 40 8 5
5 17 1 29 -11 l20 -21 -25 6 c-14 3 -34 2 -45 -2 -17 -7 -16 -9 10 -15 l30 -8
-23 -19 c-17 -13 -22 -24 -17 -39 3 -11 11 -20 17 -20 5 0 8 7 4 15 -3 8 -1
15 4 15 6 0 10 8 10 18 1 14 3 14 19 -5 23 -27 48 -30 55 -5 3 9 4 3 3 -14 -3
-26 0 -30 15 -26 10 2 24 -1 32 -7 7 -6 20 -9 29 -5 18 6 31 -11 21 -28 -12
-19 -15 -70 -4 -63 6 3 10 -3 10 -14 0 -12 7 -21 15 -21 24 0 18 -19 -10 -32
-23 -10 -23 -12 -7 -24 23 -17 6 -32 -18 -16 -25 15 -27 15 -33 -2 -4 -10 0
-12 15 -8 17 4 20 2 15 -12 -5 -13 -1 -19 13 -23 12 -3 20 -14 20 -25 0 -16 3
-18 13 -9 11 8 17 5 27 -14 7 -14 10 -28 7 -32 -4 -3 -7 -1 -7 5 0 7 -9 12
-20 12 -25 0 -26 -15 -2 -29 15 -10 16 -12 1 -23 -22 -18 -21 -80 3 -96 10 -7
16 -18 13 -23 -4 -5 1 -16 9 -25 9 -8 20 -23 26 -32 8 -12 13 -14 16 -4 3 6
15 12 26 12 16 0 18 -3 9 -14 -14 -17 9 -39 33 -30 10 4 18 0 22 -10 3 -9 13
-16 20 -16 11 0 10 -5 -5 -21 -22 -24 -61 -18 -61 9 0 14 -1 14 -13 -1 -10
-15 -16 -16 -39 -5 -29 14 -36 27 -15 29 6 1 -4 4 -23 8 -27 5 -36 12 -38 29
-2 13 -14 27 -27 32 -12 5 -25 14 -27 21 -2 7 -10 9 -17 5 -15 -10 4 -36 25
-36 8 0 14 -4 14 -10 0 -14 -4 -13 -45 10 l-35 20 0 -43 c-1 -33 -3 -38 -11
-24 -5 9 -16 17 -23 17 -7 0 -21 9 -31 20 -10 11 -35 25 -57 30 -21 6 -38 15
-38 20 0 6 -9 10 -20 10 -23 0 -40 28 -40 65 0 24 -3 26 -25 21 -22 -6 -25 -3
-25 19 0 28 -14 32 -37 9 -12 -11 -14 -26 -9 -62 3 -25 11 -51 16 -56 13 -13
13 -46 0 -46 -5 0 -10 4 -10 8 0 13 -63 33 -70 22 -8 -13 -59 -3 -84 16 -20
14 -20 14 0 29 12 9 14 14 6 15 -7 0 -20 7 -29 15 -19 19 -22 16 -25 -21 -1
-16 -10 -37 -21 -48 -13 -13 -17 -26 -12 -43 l6 -25 -31 18 c-20 13 -32 29
-36 51 -4 19 -15 38 -26 44 -13 7 -18 7 -14 1 3 -6 0 -12 -6 -15 -10 -3 -10
-7 1 -20 13 -16 9 -47 -6 -47 -11 0 -70 56 -76 72 -3 10 -13 9 -40 -6 -29 -15
-40 -16 -51 -7 -8 7 -17 8 -20 3 -13 -22 -132 11 -139 38 -3 11 -12 20 -21 20
-9 0 -16 8 -16 18 0 10 -3 21 -6 25 -10 9 -34 -4 -34 -19 0 -8 -4 -14 -10 -14
-5 0 -10 -9 -10 -20 0 -15 -7 -20 -25 -20 -19 0 -24 5 -22 21 1 15 -7 26 -30
38 -18 9 -33 23 -34 31 0 8 -5 3 -11 -12 -12 -34 -19 -35 -51 -2 l-25 25 -4
-23 c-2 -18 -13 -25 -53 -35 -27 -6 -60 -15 -72 -18 -26 -8 -28 -3 -13 26 9
17 7 19 -17 20 -15 0 -22 3 -15 6 15 6 16 33 2 33 -19 0 -24 -32 -7 -45 29
-21 19 -35 -24 -35 -36 0 -41 -2 -36 -20 4 -15 0 -20 -15 -20 -13 0 -18 5 -15
14 3 8 -1 20 -9 26 -8 7 -14 19 -14 26 0 8 -5 14 -11 14 -8 0 -9 -11 -5 -31 5
-25 3 -29 -7 -20 -10 8 -19 7 -33 -4 -18 -14 -18 -14 4 -15 12 0 22 -4 22 -10
0 -5 -9 -10 -20 -10 -11 0 -20 -4 -20 -10 0 -15 -40 -12 -41 3 -1 6 0 22 1 35
1 17 -4 22 -20 22 -17 0 -21 4 -17 20 3 11 2 20 -2 20 -4 0 -12 15 -19 33 -10
26 -14 29 -22 17 -13 -20 -1 -80 22 -109 13 -17 15 -28 8 -35 -15 -15 -12 -23
8 -22 32 2 27 -19 -5 -22 -22 -2 -33 -9 -33 -19 0 -13 -9 -15 -45 -11 -25 3
-47 2 -50 -2 -10 -16 -58 -21 -66 -8 -7 10 -9 9 -9 -3 0 -9 -9 -26 -20 -39
-20 -23 -24 -34 -21 -57 1 -7 -3 -13 -9 -13 -5 0 -10 9 -10 21 0 11 -4 17 -10
14 -6 -4 -10 -14 -9 -23 4 -43 -14 -60 -25 -24 -8 24 -69 16 -88 -11 -3 -6
-36 -11 -72 -11 -36 -1 -66 -4 -66 -8 0 -5 -13 -8 -30 -8 -16 0 -30 -4 -30
-10 0 -19 -32 -10 -37 10 -3 13 -14 20 -28 20 -13 0 -25 7 -29 15 -8 23 15 65
36 65 12 0 18 7 17 23 0 12 -3 16 -6 10 -7 -18 -23 -16 -23 2 0 9 -11 21 -25
27 -14 6 -25 15 -25 19 0 5 -7 6 -15 3 -8 -4 -15 -1 -15 7 0 7 -3 10 -6 7 -3
-4 -1 -15 4 -25 15 -29 25 -113 13 -113 -6 0 -28 16 -48 36 -30 29 -33 35 -15
30 26 -9 30 8 5 19 -34 14 -83 13 -83 -2 0 -7 -9 -13 -20 -13 -11 0 -20 -3
-20 -7 0 -7 -20 -11 -67 -13 -10 -1 -31 2 -47 6 -21 5 -27 4 -22 -5 4 -6 1
-11 -7 -11 -8 0 -20 -6 -26 -14 -10 -12 -17 -12 -44 2 -18 9 -35 21 -39 26 -3
5 -14 2 -23 -7 -9 -10 -23 -17 -31 -17 -20 0 -18 -47 4 -59 16 -10 16 -10 0
-11 -10 0 -18 5 -18 11 0 8 -5 8 -15 -1 -12 -10 -18 -10 -30 0 -12 10 -19 10
-27 2 -7 -7 -25 -12 -41 -12 -25 0 -27 3 -21 22 6 20 5 21 -9 9 -17 -14 -47
-9 -47 8 0 17 51 42 97 46 26 3 50 11 55 17 6 10 10 10 20 0 18 -18 32 -15 17
5 -10 11 -10 14 -1 9 6 -4 12 -2 12 3 0 6 7 11 15 11 9 0 18 6 21 14 3 7 22
16 43 20 21 3 51 13 67 21 16 8 39 15 52 15 12 0 22 4 22 8 0 11 97 37 140 37
22 0 35 5 35 13 0 15 66 42 101 42 11 0 35 7 53 16 18 9 55 16 82 16 30 0 46
4 43 10 -6 10 12 28 29 28 12 0 8 -28 -5 -33 -8 -4 -7 -6 4 -6 9 -1 23 -4 32
-7 21 -8 21 14 -1 39 -18 19 -17 20 20 13 23 -4 37 -3 37 4 0 5 -4 10 -10 10
-5 0 -10 4 -10 8 0 4 16 6 35 4 21 -3 35 -10 35 -18 0 -8 7 -14 15 -14 18 0
20 30 3 31 -10 0 -10 2 0 6 6 2 9 9 6 15 -4 6 2 8 16 3 14 -5 20 -3 16 3 -3 6
6 14 22 20 30 10 57 0 80 -30 15 -21 38 -23 45 -5 3 8 10 6 21 -8 8 -11 16
-15 16 -8 0 6 -4 15 -10 18 -5 3 -10 15 -10 26 0 10 -4 19 -10 19 -19 0 -10
32 10 37 11 3 20 9 20 14 0 5 9 9 19 9 11 0 49 13 85 30 102 45 142 55 161 40
13 -10 15 -9 15 9 0 11 6 21 14 21 7 0 27 7 42 15 16 8 36 15 44 15 9 0 20 4
25 9 9 8 107 26 205 38 19 2 44 8 55 13 11 5 61 14 111 19 101 11 184 34 227
64 21 14 39 18 65 14 20 -3 31 -3 24 0 -17 7 -5 23 17 23 10 0 24 7 32 16 7 8
21 13 31 11 11 -3 24 3 32 15 12 17 21 19 58 14 36 -5 46 -3 58 14 8 11 20 20
27 20 7 0 13 5 13 10 0 6 11 10 25 10 14 0 25 4 25 10 0 5 11 12 25 16 13 3
29 12 36 20 13 16 29 19 29 5z m-3274 -79 c-4 -4 -12 1 -17 11 -6 9 -17 17
-24 17 -8 0 -15 5 -15 10 0 6 9 10 20 10 11 0 20 6 21 13 1 6 6 -3 12 -21 5
-18 7 -36 3 -40z m3294 58 c0 -5 -5 -10 -11 -10 -5 0 -7 5 -4 10 3 6 8 10 11
10 2 0 4 -4 4 -10z m-4315 -9 c10 -17 -11 -21 -31 -6 -18 14 -18 14 3 15 12 0
24 -4 28 -9z m4335 -31 c0 -5 -4 -10 -10 -10 -5 0 -10 5 -10 10 0 6 5 10 10
10 6 0 10 -4 10 -10z m30 1 c0 -6 -4 -13 -10 -16 -5 -3 -10 1 -10 9 0 9 5 16
10 16 6 0 10 -4 10 -9z m-3282 -17 c30 -21 28 -34 -5 -25 -16 4 -29 15 -31 24
-4 21 7 22 36 1z m3387 -24 c3 -5 1 -10 -4 -10 -6 0 -11 5 -11 10 0 6 2 10 4
10 3 0 8 -4 11 -10z m-4524 -413 c-8 -8 -11 -4 -11 14 0 33 14 47 18 19 2 -12
-1 -27 -7 -33z m2789 -17 c-19 -12 -30 -12 -30 -1 0 10 31 20 40 14 2 -2 -2
-8 -10 -13z m778 -230 c-2 -17 -8 -30 -13 -30 -6 0 -10 5 -9 10 1 6 2 19 3 30
0 11 6 20 12 20 5 0 9 -14 7 -30z m982 -64 c0 -3 -4 -8 -10 -11 -5 -3 -10 -1
-10 4 0 6 5 11 10 11 6 0 10 -2 10 -4z m-1555 -26 c-3 -5 -14 -10 -23 -10 -15
0 -15 2 -2 10 20 13 33 13 25 0z m1545 -30 c0 -5 -5 -10 -11 -10 -5 0 -7 5 -4
10 3 6 8 10 11 10 2 0 4 -4 4 -10z m275 -38 c-3 -3 -11 0 -18 7 -9 10 -8 11 6
5 10 -3 15 -9 12 -12z m260 8 c3 -5 2 -10 -4 -10 -5 0 -13 5 -16 10 -3 6 -2
10 4 10 5 0 13 -4 16 -10z m-3555 -64 c0 -10 -10 -14 -32 -14 l-33 1 30 13
c17 7 31 13 33 14 1 0 2 -6 2 -14z m-100 -46 c0 -5 -4 -10 -10 -10 -5 0 -10 5
-10 10 0 6 5 10 10 10 6 0 10 -4 10 -10z m184 -35 c-7 -16 -24 -21 -24 -6 0 8
7 13 27 20 1 1 0 -6 -3 -14z m-49 -5 c3 -5 -1 -10 -10 -10 -9 0 -13 5 -10 10
3 6 8 10 10 10 2 0 7 -4 10 -10z m-1555 -10 c0 -5 -4 -10 -10 -10 -5 0 -10 5
-10 10 0 6 5 10 10 10 6 0 10 -4 10 -10z m1470 -41 c0 -5 -7 -9 -15 -9 -8 0
-15 7 -15 15 0 9 6 12 15 9 8 -4 15 -10 15 -15z m-242 -1 c-3 -7 -13 -15 -24
-17 -16 -3 -17 -1 -5 13 16 19 34 21 29 4z m1027 -8 c3 -5 1 -10 -4 -10 -6 0
-11 5 -11 10 0 6 2 10 4 10 3 0 8 -4 11 -10z m-1105 -20 c-8 -5 -19 -10 -25
-10 -5 0 -3 5 5 10 8 5 20 10 25 10 6 0 3 -5 -5 -10z m3640 6 c0 -3 -4 -8 -10
-11 -5 -3 -10 -1 -10 4 0 6 5 11 10 11 6 0 10 -2 10 -4z m-7120 -1626 c0 -5
-4 -10 -9 -10 -6 0 -13 5 -16 10 -3 6 1 10 9 10 9 0 16 -4 16 -10z m363 -195
c72 -30 58 -59 -20 -42 -39 8 -53 15 -53 28 0 15 12 26 31 28 4 1 23 -6 42
-14z m-198 -59 c103 -50 134 -70 123 -82 -3 -2 -19 7 -37 20 -18 13 -49 27
-69 31 -42 8 -152 63 -152 76 0 17 23 9 135 -45z m175 -96 c0 -5 -2 -10 -4
-10 -3 0 -8 5 -11 10 -3 6 -1 10 4 10 6 0 11 -4 11 -10z"/>
<path d="M3818 9073 c7 -3 16 -2 19 1 4 3 -2 6 -13 5 -11 0 -14 -3 -6 -6z"/>
<path d="M4995 8810 c-3 -5 3 -10 14 -10 12 0 21 5 21 10 0 6 -6 10 -14 10 -8
0 -18 -4 -21 -10z"/>
<path d="M5050 8800 c19 -13 30 -13 30 0 0 6 -10 10 -22 10 -19 0 -20 -2 -8
-10z"/>
<path d="M5031 8674 c0 -11 3 -14 6 -6 3 7 2 16 -1 19 -3 4 -6 -2 -5 -13z"/>
<path d="M7200 3345 c0 -8 7 -15 15 -15 9 0 12 6 9 15 -4 8 -10 15 -15 15 -5
0 -9 -7 -9 -15z"/>
<path d="M7281 3304 c0 -11 3 -14 6 -6 3 7 2 16 -1 19 -3 4 -6 -2 -5 -13z"/>
<path d="M6053 3303 c-27 -5 -28 -9 -6 -31 16 -16 16 -16 10 2 -6 15 -4 17 12
13 14 -3 18 -1 14 9 -3 8 -6 13 -7 13 0 -1 -11 -4 -23 -6z"/>
<path d="M7320 3290 c0 -5 -7 -10 -16 -10 -14 0 -14 -3 -4 -15 7 -8 16 -15 21
-15 5 0 9 7 9 15 0 8 5 15 11 15 5 0 7 5 4 10 -3 6 -10 10 -16 10 -5 0 -9 -4
-9 -10z"/>
<path d="M6221 3267 c-31 -15 -39 -37 -14 -37 28 0 60 26 48 39 -7 7 -18 6
-34 -2z"/>
<path d="M7234 3265 c17 -13 17 -15 3 -21 -32 -12 -9 -64 27 -64 11 0 15 10
14 38 -1 44 -13 62 -42 62 -20 -1 -20 -1 -2 -15z"/>
<path d="M5940 3222 c0 -10 11 -24 25 -30 32 -15 35 -15 35 -2 0 6 -9 10 -20
10 -11 0 -20 6 -20 14 0 8 -4 18 -10 21 -5 3 -10 -2 -10 -13z"/>
<path d="M6135 3230 c-3 -5 3 -10 15 -10 12 0 18 5 15 10 -3 6 -10 10 -15 10
-5 0 -12 -4 -15 -10z"/>
<path d="M6305 3201 c-3 -5 -1 -12 5 -16 5 -3 10 1 10 9 0 18 -6 21 -15 7z"/>
<path d="M5905 3190 c-5 -8 -10 -19 -10 -25 0 -5 -13 -10 -28 -10 -30 1 -33
-6 -15 -35 7 -10 9 -23 4 -27 -4 -4 -11 -1 -16 8 -6 11 -25 16 -58 17 -45 1
-49 -1 -45 -19 3 -10 0 -26 -7 -33 -6 -8 -13 -31 -15 -50 -4 -46 20 -49 30 -3
4 17 9 26 12 20 6 -16 43 -17 43 -2 0 7 11 9 30 6 45 -9 60 0 60 39 0 39 8 42
38 14 27 -25 39 -25 53 1 8 17 8 23 -1 29 -7 4 -9 13 -6 19 5 7 -4 16 -23 22
-16 6 -31 18 -33 27 -3 15 -5 15 -13 2z"/>
<path d="M6010 3189 c0 -5 5 -7 10 -4 6 3 10 8 10 11 0 2 -4 4 -10 4 -5 0 -10
-5 -10 -11z"/>
<path d="M5665 3170 c3 -5 8 -10 11 -10 2 0 4 5 4 10 0 6 -5 10 -11 10 -5 0
-7 -4 -4 -10z"/>
<path d="M6080 3140 c0 -19 5 -30 14 -30 22 0 28 17 16 40 -16 29 -30 25 -30
-10z"/>
<path d="M6260 3162 c0 -14 39 -46 47 -39 3 4 -2 16 -12 27 -19 21 -35 26 -35
12z"/>
<path d="M5540 3150 c0 -5 5 -10 10 -10 6 0 10 5 10 10 0 6 -4 10 -10 10 -5 0
-10 -4 -10 -10z"/>
<path d="M5508 3144 c-4 -6 1 -19 12 -29 12 -10 20 -13 20 -7 0 7 -4 12 -9 12
-5 0 -11 8 -13 18 -2 11 -6 13 -10 6z"/>
<path d="M6386 3131 c-3 -5 1 -11 9 -15 8 -3 15 -1 15 4 0 13 -18 22 -24 11z"/>
<path d="M6650 3121 c0 -5 -9 -7 -20 -4 -25 7 -26 -9 -2 -30 21 -19 67 -23 77
-6 4 5 -1 19 -11 30 -18 20 -44 26 -44 10z"/>
<path d="M6156 3105 c4 -8 8 -15 10 -15 2 0 4 7 4 15 0 8 -4 15 -10 15 -5 0
-7 -7 -4 -15z"/>
<path d="M6205 3110 c3 -5 10 -10 16 -10 5 0 9 5 9 10 0 6 -7 10 -16 10 -8 0
-12 -4 -9 -10z"/>
<path d="M6240 3080 c0 -5 5 -10 10 -10 6 0 10 5 10 10 0 6 -4 10 -10 10 -5 0
-10 -4 -10 -10z"/>
<path d="M5680 3070 c0 -5 7 -10 16 -10 8 0 12 5 9 10 -3 6 -10 10 -16 10 -5
0 -9 -4 -9 -10z"/>
<path d="M6278 3068 c9 -9 15 -9 24 0 9 9 7 12 -12 12 -19 0 -21 -3 -12 -12z"/>
<path d="M5240 3040 c0 -19 3 -21 12 -12 9 9 9 15 0 24 -9 9 -12 7 -12 -12z"/>
<path d="M7361 3044 c0 -11 3 -14 6 -6 3 7 2 16 -1 19 -3 4 -6 -2 -5 -13z"/>
<path d="M6126 3041 c-4 -7 -5 -15 -2 -18 9 -9 19 4 14 18 -4 11 -6 11 -12 0z"/>
<path d="M7260 3006 c0 -15 18 -31 26 -23 7 7 -7 37 -17 37 -5 0 -9 -6 -9 -14z"/>
<path d="M5360 2996 c0 -20 19 -31 32 -18 7 7 3 14 -11 21 -17 10 -21 9 -21
-3z"/>
<path d="M6955 2999 c-9 -14 -2 -20 14 -10 8 6 9 11 3 15 -6 3 -14 1 -17 -5z"/>
<path d="M7210 2970 c0 -5 4 -10 9 -10 5 0 18 -3 28 -6 16 -6 16 -5 -2 9 -23
19 -35 21 -35 7z"/>
<path d="M7160 2960 c-12 -7 -12 -12 -2 -22 9 -9 12 -9 12 4 0 9 8 19 18 21
12 3 13 5 2 6 -8 0 -22 -4 -30 -9z"/>
<path d="M4915 2950 c4 -6 11 -8 16 -5 14 9 11 15 -7 15 -8 0 -12 -5 -9 -10z"/>
<path d="M5020 2930 c0 -16 5 -30 10 -30 6 0 10 -8 8 -17 -2 -14 5 -19 31 -21
18 -2 38 1 44 7 8 8 6 11 -5 11 -9 0 -19 9 -23 19 -3 11 -15 23 -26 26 -10 4
-19 13 -19 21 0 8 -4 14 -10 14 -5 0 -10 -13 -10 -30z"/>
<path d="M4857 2911 c-9 -43 -9 -46 6 -46 6 0 11 6 9 14 -2 10 5 12 32 7 30
-6 34 -4 29 13 -3 10 -12 21 -21 24 -10 3 -24 8 -33 11 -12 5 -18 0 -22 -23z"/>
<path d="M6560 2926 c0 -9 7 -16 16 -16 17 0 14 22 -4 28 -7 2 -12 -3 -12 -12z"/>
<path d="M5490 2895 c0 -8 7 -15 15 -15 8 0 15 7 15 15 0 8 -7 15 -15 15 -8 0
-15 -7 -15 -15z"/>
<path d="M4810 2880 c10 -6 11 -10 3 -10 -7 0 -13 -4 -13 -10 0 -5 9 -10 21
-10 15 0 19 4 15 16 -3 9 -6 18 -6 20 0 2 -8 4 -17 4 -15 0 -16 -2 -3 -10z"/>
<path d="M7125 2880 c-3 -5 -1 -10 4 -10 6 0 11 5 11 10 0 6 -2 10 -4 10 -3 0
-8 -4 -11 -10z"/>
<path d="M6881 2864 c0 -11 3 -14 6 -6 3 7 2 16 -1 19 -3 4 -6 -2 -5 -13z"/>
<path d="M6830 2860 c0 -5 7 -10 15 -10 8 0 15 5 15 10 0 6 -7 10 -15 10 -8 0
-15 -4 -15 -10z"/>
<path d="M4998 2829 c-13 -21 -15 -21 -32 -4 -18 18 -18 18 -14 -1 2 -11 13
-20 26 -22 25 -4 65 25 56 39 -9 15 -21 10 -36 -12z"/>
<path d="M4876 2825 c4 -8 8 -15 10 -15 2 0 4 7 4 15 0 8 -4 15 -10 15 -5 0
-7 -7 -4 -15z"/>
<path d="M4628 2823 c7 -3 16 -2 19 1 4 3 -2 6 -13 5 -11 0 -14 -3 -6 -6z"/>
<path d="M4681 2814 c0 -11 3 -14 6 -6 3 7 2 16 -1 19 -3 4 -6 -2 -5 -13z"/>
<path d="M4911 2813 c0 -5 4 -17 9 -28 8 -18 9 -17 9 8 1 15 -3 27 -9 27 -5 0
-10 -3 -9 -7z"/>
<path d="M4590 2800 c0 -12 8 -12 35 0 18 8 17 9 -7 9 -16 1 -28 -3 -28 -9z"/>
<path d="M5317 2783 c-4 -3 -7 -11 -7 -17 0 -6 5 -5 12 2 6 6 9 14 7 17 -3 3
-9 2 -12 -2z"/>
<path d="M4375 2770 c-3 -5 -1 -10 4 -10 6 0 11 5 11 10 0 6 -2 10 -4 10 -3 0
-8 -4 -11 -10z"/>
<path d="M4625 2770 c-3 -5 -1 -10 4 -10 6 0 11 5 11 10 0 6 -2 10 -4 10 -3 0
-8 -4 -11 -10z"/>
<path d="M4550 2760 c0 -5 7 -7 15 -4 8 4 15 8 15 10 0 2 -7 4 -15 4 -8 0 -15
-4 -15 -10z"/>
<path d="M4424 2746 c-8 -22 3 -33 18 -18 9 9 9 15 0 24 -9 9 -13 7 -18 -6z"/>
<path d="M5200 2750 c0 -5 5 -10 11 -10 5 0 7 5 4 10 -3 6 -8 10 -11 10 -2 0
-4 -4 -4 -10z"/>
<path d="M4340 2740 c0 -5 5 -10 10 -10 6 0 10 5 10 10 0 6 -4 10 -10 10 -5 0
-10 -4 -10 -10z"/>
<path d="M7840 17850 c0 -5 5 -10 11 -10 5 0 7 5 4 10 -3 6 -8 10 -11 10 -2 0
-4 -4 -4 -10z"/>
<path d="M7840 17675 c0 -10 7 -15 18 -13 21 4 19 22 -2 26 -10 2 -16 -3 -16
-13z"/>
<path d="M7920 17635 c0 -8 5 -15 10 -15 6 0 10 7 10 15 0 8 -4 15 -10 15 -5
0 -10 -7 -10 -15z"/>
<path d="M7890 17629 c0 -5 5 -7 10 -4 6 3 10 8 10 11 0 2 -4 4 -10 4 -5 0
-10 -5 -10 -11z"/>
<path d="M7913 17603 c-28 -5 -31 -23 -4 -23 10 0 21 7 25 15 3 8 4 14 3 14
-1 -1 -12 -4 -24 -6z"/>
<path d="M7950 17570 c0 -5 5 -10 10 -10 6 0 10 5 10 10 0 6 -4 10 -10 10 -5
0 -10 -4 -10 -10z"/>
<path d="M9577 17564 c-8 -8 1 -24 14 -24 5 0 9 7 9 15 0 15 -12 20 -23 9z"/>
<path d="M7510 17550 c0 -5 5 -10 11 -10 5 0 7 5 4 10 -3 6 -8 10 -11 10 -2 0
-4 -4 -4 -10z"/>
<path d="M9510 17525 c0 -5 5 -17 10 -25 5 -8 10 -10 10 -5 0 6 -5 17 -10 25
-5 8 -10 11 -10 5z"/>
<path d="M9550 17360 c-13 -8 -13 -10 2 -10 9 0 20 5 23 10 8 13 -5 13 -25 0z"/>
<path d="M9357 17074 c-4 -4 -7 -14 -7 -23 0 -11 3 -12 11 -4 6 6 10 16 7 23
-2 6 -7 8 -11 4z"/>
<path d="M9200 16772 c0 -15 -5 -33 -12 -40 -8 -8 -8 -12 -1 -12 9 0 43 58 43
74 0 3 -7 6 -15 6 -10 0 -15 -10 -15 -28z"/>
<path d="M9051 16745 c0 -5 6 -19 14 -29 8 -11 15 -15 15 -10 0 6 -7 19 -15
30 -8 10 -14 15 -14 9z"/>
<path d="M8400 16700 c0 -5 7 -10 16 -10 8 0 12 5 9 10 -3 6 -10 10 -16 10 -5
0 -9 -4 -9 -10z"/>
<path d="M9167 16704 c-13 -13 -7 -24 14 -24 11 0 19 5 17 12 -5 14 -22 21
-31 12z"/>
<path d="M9114 16687 c3 -10 6 -32 6 -48 0 -16 5 -29 10 -29 16 0 11 53 -7 75
-14 18 -15 18 -9 2z"/>
<path d="M9155 16650 c-3 -5 1 -10 10 -10 9 0 13 5 10 10 -3 6 -8 10 -10 10
-2 0 -7 -4 -10 -10z"/>
<path d="M9150 16495 c0 -8 5 -15 10 -15 6 0 10 7 10 15 0 8 -4 15 -10 15 -5
0 -10 -7 -10 -15z"/>
<path d="M8960 16450 c0 -5 5 -10 10 -10 6 0 10 5 10 10 0 6 -4 10 -10 10 -5
0 -10 -4 -10 -10z"/>
<path d="M0 16299 c0 -5 5 -7 10 -4 5 3 10 8 10 11 0 2 -4 4 -10 4 -5 0 -10
-5 -10 -11z"/>
<path d="M1895 14560 c-3 -5 -2 -17 3 -27 9 -15 11 -14 20 4 15 27 -7 49 -23
23z"/>
<path d="M1933 14525 c-18 -19 -16 -35 4 -50 15 -11 15 -20 3 -99 -7 -47 -17
-86 -22 -86 -4 0 -8 -12 -8 -26 0 -14 -5 -34 -10 -44 -6 -10 -11 -30 -12 -44
-1 -14 -8 -28 -15 -30 -7 -3 -13 -12 -13 -21 0 -9 -7 -27 -16 -40 -9 -13 -13
-29 -9 -35 4 -6 -1 -17 -11 -25 -19 -13 -39 -10 -29 5 3 4 -4 6 -15 3 -16 -4
-17 -7 -6 -19 19 -18 87 -64 97 -64 4 0 11 15 14 33 4 17 20 58 36 91 16 32
29 62 29 67 0 5 16 42 35 83 19 41 44 97 55 125 11 29 27 62 36 76 26 39 15
67 -36 92 -52 26 -90 28 -107 8z"/>
<path d="M2857 14343 c-12 -11 -8 -23 8 -23 8 0 15 7 15 15 0 16 -12 20 -23 8z"/>
<path d="M1784 13921 c-9 -11 -18 -32 -20 -48 -2 -15 -8 -29 -13 -31 -6 -2
-13 -20 -17 -40 -4 -19 -24 -70 -45 -111 -22 -42 -39 -82 -39 -90 0 -7 -7 -19
-15 -25 -8 -6 -16 -23 -17 -38 -1 -15 -7 -26 -13 -25 -5 1 -9 -6 -7 -15 3 -19
-13 -24 -23 -8 -3 6 -11 10 -17 10 -7 0 -6 -6 2 -15 10 -12 10 -15 -3 -15 -8
0 -17 5 -19 12 -2 6 -26 17 -54 24 -27 8 -60 17 -73 20 -15 5 -22 3 -18 -3 4
-6 19 -14 34 -18 16 -3 35 -12 43 -20 8 -7 43 -27 78 -46 73 -39 77 -37 111
56 13 33 33 83 46 111 13 28 34 75 45 105 12 30 35 82 51 115 16 34 30 72 31
85 4 31 -25 37 -48 10z"/>
<path d="M815 13588 c-4 -13 -7 -27 -6 -32 1 -4 -6 -14 -16 -22 -10 -7 -14
-14 -10 -14 5 0 -1 -13 -12 -29 -12 -16 -21 -35 -21 -43 0 -25 -52 -168 -61
-168 -5 0 -9 -11 -9 -24 0 -14 -4 -27 -9 -31 -5 -3 -15 -22 -22 -43 -6 -20
-17 -44 -23 -52 -7 -8 -20 -42 -30 -75 -10 -33 -23 -71 -29 -85 -6 -14 -11
-29 -12 -35 0 -5 -5 -16 -12 -22 -6 -7 -19 -36 -28 -65 -10 -29 -28 -70 -41
-90 -13 -21 -24 -44 -24 -51 0 -20 -31 -110 -44 -126 -6 -8 -9 -24 -8 -36 2
-12 -4 -28 -12 -35 -11 -8 -16 -30 -16 -68 0 -30 3 -53 6 -49 3 3 14 -3 25
-14 10 -10 28 -19 39 -19 17 0 19 -5 15 -30 -4 -20 -1 -30 7 -31 32 -2 93 4
98 9 3 4 44 9 91 11 80 3 87 2 91 -17 3 -12 16 -22 29 -24 16 -2 24 -9 23 -21
-1 -9 4 -17 11 -17 14 0 65 -55 65 -70 0 -5 -8 -11 -17 -14 -10 -3 -6 -4 10
-2 23 3 28 -1 33 -23 3 -14 7 -32 10 -38 2 -7 0 -13 -5 -13 -5 0 -8 -20 -7
-44 0 -24 4 -42 7 -40 15 9 19 -31 5 -41 -10 -8 -14 -23 -11 -46 3 -19 -2 -48
-10 -65 -17 -36 -10 -74 15 -74 12 0 25 17 39 50 28 65 156 334 181 381 27 50
26 86 -2 95 -26 8 -257 120 -332 161 -55 31 -47 43 11 17 168 -76 323 -155
323 -163 0 -6 6 -11 14 -11 11 0 106 175 106 195 0 2 18 43 41 92 67 144 86
187 93 209 6 19 -5 27 -96 73 -178 87 -289 151 -265 151 11 0 255 -119 309
-151 27 -16 52 -29 56 -29 4 0 12 15 18 33 25 70 90 223 170 396 43 93 43 107
2 114 -19 2 -36 0 -40 -7 -5 -7 -8 -4 -8 7 0 9 -4 17 -10 17 -5 0 -10 -7 -10
-15 0 -9 -10 -16 -27 -16 -91 -5 -106 -7 -112 -16 -12 -19 -42 -23 -48 -7 -3
8 -13 14 -22 13 -50 -5 -70 2 -73 23 -2 13 -11 24 -23 27 -11 2 -31 14 -44 27
-13 13 -28 24 -33 24 -4 0 -27 20 -51 44 -34 36 -47 43 -68 39 -19 -3 -40 5
-76 31 -59 42 -97 47 -108 14z"/>
<path d="M1475 12790 c3 -5 8 -10 11 -10 2 0 4 5 4 10 0 6 -5 10 -11 10 -5 0
-7 -4 -4 -10z"/>
<path d="M1511 12775 c9 -8 79 -35 79 -30 0 7 -57 35 -71 35 -7 0 -10 -2 -8
-5z"/>
<path d="M1986 12341 c-4 -7 -5 -15 -2 -18 9 -9 19 4 14 18 -4 11 -6 11 -12 0z"/>
<path d="M1857 12021 c-10 -90 -9 -101 8 -101 17 0 18 30 6 115 l-7 50 -7 -64z"/>
<path d="M837 11703 c-9 -21 -21 -55 -27 -75 -6 -21 -16 -40 -21 -43 -5 -4 -9
-14 -9 -23 0 -9 -13 -42 -30 -72 -16 -30 -29 -64 -30 -76 0 -11 -7 -29 -15
-40 -22 -28 -55 -104 -55 -125 0 -38 27 -18 52 39 64 145 188 439 188 445 0 4
-8 7 -18 7 -12 0 -25 -13 -35 -37z"/>
<path d="M602 11133 c-12 -27 -28 -64 -36 -83 -9 -19 -20 -42 -25 -50 -5 -8
-19 -40 -31 -70 -12 -30 -33 -72 -46 -92 -13 -21 -24 -48 -24 -60 -1 -26 -22
-58 -39 -58 -18 0 -13 -18 9 -30 17 -9 22 -7 30 12 74 178 101 238 114 263 9
17 16 34 16 38 0 5 16 45 35 88 38 87 39 89 27 89 -5 0 -18 -21 -30 -47z"/>
<path d="M359 10608 c-11 -24 -24 -50 -28 -58 -5 -8 -39 -77 -76 -152 -37 -75
-73 -139 -81 -142 -8 -3 -14 -14 -14 -25 0 -17 -5 -18 -42 -14 -24 4 -44 10
-46 14 -2 5 -12 9 -23 9 -10 0 -19 5 -19 10 0 6 -7 10 -15 10 -8 0 -15 -9 -15
-19 0 -14 14 -25 48 -37 26 -10 62 -29 81 -41 57 -39 67 -33 100 66 12 35 30
80 41 101 11 21 26 55 34 77 8 21 28 72 46 113 18 41 36 87 40 103 13 43 -9
32 -31 -15z"/>
<path d="M660 10586 c0 -2 7 -7 16 -10 8 -3 12 -2 9 4 -6 10 -25 14 -25 6z"/>
<path d="M1030 10224 c0 -14 3 -14 15 -4 8 7 15 14 15 16 0 2 -7 4 -15 4 -8 0
-15 -7 -15 -16z"/>
<path d="M0 9937 c0 -116 2 -208 4 -206 15 16 166 375 162 385 -3 8 -21 13
-48 12 -24 0 -60 4 -80 9 l-38 11 0 -211z"/>
<path d="M8673 6892 c-6 -11 -15 -36 -19 -56 -3 -20 -9 -35 -11 -32 -3 3 -15
-14 -27 -37 -115 -217 -135 -258 -130 -271 3 -8 17 -17 32 -21 15 -4 76 -25
135 -47 59 -22 111 -38 114 -34 4 3 -1 6 -10 6 -8 0 -17 4 -19 8 -1 4 -27 23
-55 42 -29 18 -53 39 -53 46 0 7 -9 16 -21 19 -14 5 -19 13 -16 25 3 11 0 21
-5 22 -10 4 0 46 23 103 5 11 18 52 30 90 12 39 28 80 36 93 8 13 13 32 11 43
-3 19 -3 19 -15 1z"/>
<path d="M9200 4360 c0 -5 7 -10 16 -10 8 0 12 5 9 10 -3 6 -10 10 -16 10 -5
0 -9 -4 -9 -10z"/>
</g>
</svg>
